<?xml version="1.0" encoding="UTF-8" standalone="no" ?>
<!DOCTYPE svg PUBLIC "-//W3C//DTD SVG 1.1//EN" "http://www.w3.org/Graphics/SVG/1.1/DTD/svg11.dtd">
<svg xmlns="http://www.w3.org/2000/svg" xmlns:xlink="http://www.w3.org/1999/xlink" version="1.1" width="1080" height="1080" viewBox="0 0 1080 1080" xml:space="preserve">
<desc>Created with Fabric.js 5.2.4</desc>
<defs>
</defs>
<g transform="matrix(1 0 0 1 540 540)" id="72c023aa-5439-4fd9-8b83-d4c6b9fb5ca8"  >
<rect style="stroke: none; stroke-width: 1; stroke-dasharray: none; stroke-linecap: butt; stroke-dashoffset: 0; stroke-linejoin: miter; stroke-miterlimit: 4; fill: rgb(255,255,255); fill-rule: nonzero; opacity: 1; visibility: hidden;" vector-effect="non-scaling-stroke"  x="-540" y="-540" rx="0" ry="0" width="1080" height="1080" />
</g>
<g transform="matrix(1 0 0 1 540 540)" id="cef57550-0d10-47a6-8589-08d5b6554303"  >
</g>
<g transform="matrix(1 0 0 1 525.96 260.37)"  >
<path style="stroke: none; stroke-width: 1; stroke-dasharray: none; stroke-linecap: butt; stroke-dashoffset: 0; stroke-linejoin: miter; stroke-miterlimit: 4; fill: rgb(229,148,42); fill-rule: evenodd; opacity: 1;" vector-effect="non-scaling-stroke"  transform=" translate(-787.53, -271.05)" d="M 787.527 165.333 C 929.171 165.333 1052.968 241.688 1120.039 355.472 C 1122.686 359.959 1122.717 365.12699999999995 1120.135 369.65099999999995 C 1117.548 374.179 1113.075 376.775 1107.866 376.775 L 467.189 376.775 C 461.97700000000003 376.775 457.507 374.179 454.91900000000004 369.65099999999995 C 452.33700000000005 365.12699999999995 452.37100000000004 359.95899999999995 455.016 355.472 C 522.087 241.689 645.884 165.333 787.527 165.333 z" stroke-linecap="round" />
</g>
<g transform="matrix(1 0 0 1 525.96 282.35)"  >
<path style="stroke: none; stroke-width: 1; stroke-dasharray: none; stroke-linecap: butt; stroke-dashoffset: 0; stroke-linejoin: miter; stroke-miterlimit: 4; fill: rgb(208,127,21); fill-rule: evenodd; opacity: 1;" vector-effect="non-scaling-stroke"  transform=" translate(-787.53, -293.04)" d="M 966.504 209.296 C 1030.295 242.77499999999998 1083.556 293.58299999999997 1120.037 355.472 C 1122.6870000000001 359.959 1122.713 365.126 1120.136 369.65099999999995 C 1117.552 374.179 1113.076 376.775 1107.864 376.775 L 467.186 376.775 C 461.976 376.775 457.503 374.179 454.92199999999997 369.65099999999995 C 452.33799999999997 365.12499999999994 452.37399999999997 359.95899999999995 455.02 355.472 C 456.75 352.537 458.529 349.63599999999997 460.33299999999997 346.74899999999997 L 1063.0079999999998 346.74899999999997 C 1068.0449999999998 346.74899999999997 1072.3709999999999 344.243 1074.8669999999997 339.86699999999996 C 1077.3569999999997 335.49499999999995 1077.3309999999997 330.501 1074.7709999999997 326.16799999999995 C 1047.474 279.856 1010.45 239.962 966.504 209.296 z" stroke-linecap="round" />
</g>
<g transform="matrix(1 0 0 1 525.96 768.16)"  >
<path style="stroke: none; stroke-width: 1; stroke-dasharray: none; stroke-linecap: butt; stroke-dashoffset: 0; stroke-linejoin: miter; stroke-miterlimit: 4; fill: rgb(229,148,42); fill-rule: evenodd; opacity: 1;" vector-effect="non-scaling-stroke"  transform=" translate(-787.53, -778.84)" d="M 584.615 868.034 L 990.4449999999999 868.034 C 1068.249 868.034 1131.7079999999999 804.574 1131.7079999999999 726.771 L 1131.7079999999999 703.771 C 1131.7079999999999 695.9889999999999 1125.3619999999999 689.644 1117.5819999999999 689.644 L 457.475 689.644 C 449.69800000000004 689.644 443.34900000000005 695.991 443.34900000000005 703.771 L 443.34900000000005 726.771 C 443.349 804.572 506.809 868.034 584.615 868.034 z" stroke-linecap="round" />
</g>
<g transform="matrix(1 0 0 1 530.64 768.16)"  >
<path style="stroke: none; stroke-width: 1; stroke-dasharray: none; stroke-linecap: butt; stroke-dashoffset: 0; stroke-linejoin: miter; stroke-miterlimit: 4; fill: rgb(208,127,21); fill-rule: evenodd; opacity: 1;" vector-effect="non-scaling-stroke"  transform=" translate(-792.21, -778.84)" d="M 584.613 868.036 L 990.4480000000001 868.036 C 1068.2530000000002 868.036 1131.71 804.574 1131.71 726.765 L 1131.71 703.768 C 1131.71 695.988 1125.364 689.644 1117.584 689.644 L 1086.0510000000002 689.644 L 1086.0510000000002 701.606 C 1086.0510000000002 775.835 1025.5140000000001 836.374 951.2920000000001 836.374 L 564.133 836.374 C 517.909 836.374 476.999 812.889 452.708 777.248 C 473.097 830.25 524.582 868.036 584.613 868.036 z" stroke-linecap="round" />
</g>
<g transform="matrix(1 0 0 1 525.96 549.69)"  >
<path style="stroke: none; stroke-width: 1; stroke-dasharray: none; stroke-linecap: butt; stroke-dashoffset: 0; stroke-linejoin: miter; stroke-miterlimit: 4; fill: rgb(175,47,33); fill-rule: evenodd; opacity: 1;" vector-effect="non-scaling-stroke"  transform=" translate(-787.53, -560.37)" d="M 442.567 609.219 L 1132.4940000000001 609.219 C 1143.9910000000002 609.219 1153.4 599.815 1153.4 588.3140000000001 L 1153.4 532.422 C 1153.4 520.9250000000001 1143.9830000000002 511.52000000000004 1132.4940000000001 511.52000000000004 L 953.441 511.52000000000004 L 901.303 572.0830000000001 L 901.248 572.037 L 901.21 572.0830000000001 C 897.8330000000001 575.9990000000001 893.769 579.0540000000001 889.116 581.1870000000001 C 884.398 583.3490000000002 879.441 584.4570000000001 874.33 584.4570000000001 C 869.224 584.4570000000001 864.2620000000001 583.3490000000002 859.541 581.1870000000001 C 855.815 579.4760000000001 852.44 577.1600000000001 849.4920000000001 574.2690000000001 C 848.7450000000001 573.5970000000001 848.0300000000001 572.8650000000001 847.3560000000001 572.0820000000001 L 795.2180000000001 511.5190000000001 L 442.5680000000001 511.5190000000001 C 431.0760000000001 511.5190000000001 421.6620000000001 520.9320000000001 421.6620000000001 532.4210000000002 L 421.6620000000001 588.3130000000002 C 421.661 599.808 431.07 609.219 442.567 609.219 z" stroke-linecap="round" />
</g>
<g transform="matrix(1 0 0 1 525.97 549.69)"  >
<path style="stroke: none; stroke-width: 1; stroke-dasharray: none; stroke-linecap: butt; stroke-dashoffset: 0; stroke-linejoin: miter; stroke-miterlimit: 4; fill: rgb(125,54,29); fill-rule: evenodd; opacity: 1;" vector-effect="non-scaling-stroke"  transform=" translate(-787.53, -560.37)" d="M 442.567 609.219 L 1132.491 609.219 C 1143.99 609.219 1153.401 599.815 1153.401 588.3140000000001 L 1153.401 532.42 C 1153.401 520.924 1143.9850000000001 511.52 1132.491 511.52 L 1120.51 511.52 L 1120.51 559.857 C 1120.51 570.9689999999999 1111.418 580.057 1100.305 580.057 L 891.369 580.057 C 890.634 580.457 889.883 580.8340000000001 889.116 581.187 C 884.398 583.349 879.441 584.457 874.33 584.457 C 869.224 584.457 864.2620000000001 583.349 859.541 581.187 C 858.7760000000001 580.837 858.027 580.46 857.293 580.057 L 433.695 580.057 C 429.193 580.057 425.027 578.565 421.661 576.0500000000001 L 421.661 588.3140000000001 C 421.661 599.805 431.068 609.219 442.567 609.219 z" stroke-linecap="round" />
</g>
<g transform="matrix(1 0 0 1 525.97 461.1)"  >
<path style="stroke: none; stroke-width: 1; stroke-dasharray: none; stroke-linecap: butt; stroke-dashoffset: 0; stroke-linejoin: miter; stroke-miterlimit: 4; fill: rgb(231,82,42); fill-rule: evenodd; opacity: 1;" vector-effect="non-scaling-stroke"  transform=" translate(-787.53, -471.78)" d="M 1082.901 487.13 C 1091.43 487.13 1098.405 480.155 1098.405 471.628 L 1098.405 471.628 C 1098.405 464.14 1093.02 457.84499999999997 1085.93 456.42699999999996 L 1000.869 456.42699999999996 L 974.438 487.12999999999994 L 1082.901 487.12999999999994 L 1082.901 487.13 z M 489.131 456.427 C 482.042 457.845 476.657 464.14000000000004 476.657 471.62800000000004 L 476.657 471.62800000000004 C 476.657 480.15400000000005 483.633 487.13000000000005 492.159 487.13000000000005 L 774.221 487.13000000000005 L 747.79 456.4270000000001 L 489.131 456.4270000000001 z" stroke-linecap="round" />
</g>
<g transform="matrix(1 0 0 1 525.97 470.26)"  >
<path style="stroke: none; stroke-width: 1; stroke-dasharray: none; stroke-linecap: butt; stroke-dashoffset: 0; stroke-linejoin: miter; stroke-miterlimit: 4; fill: rgb(252,238,121); fill-rule: evenodd; opacity: 1;" vector-effect="non-scaling-stroke"  transform=" translate(-787.53, -480.94)" d="M 883.118 556.431 L 986.397 436.46400000000006 C 988.678 433.81200000000007 991.6880000000001 432.4320000000001 995.186 432.4320000000001 L 1116.065 432.4320000000001 C 1124.593 432.4320000000001 1131.569 425.45700000000005 1131.569 416.9310000000001 L 1131.569 416.9310000000001 C 1131.569 408.4020000000001 1124.5929999999998 401.4270000000001 1116.065 401.4270000000001 C 897.0400000000001 401.4270000000001 678.019 401.4270000000001 458.994 401.4270000000001 C 450.468 401.4270000000001 443.49300000000005 408.4020000000001 443.49300000000005 416.9310000000001 L 443.49300000000005 416.9310000000001 C 443.49300000000005 425.4560000000001 450.4680000000001 432.4320000000001 458.994 432.4320000000001 L 753.471 432.4320000000001 C 756.972 432.4320000000001 759.977 433.81200000000007 762.261 436.46400000000006 L 865.538 556.431 C 867.819 559.082 870.8290000000001 560.462 874.327 560.462 C 877.825 560.462 880.834 559.082 883.118 556.431 z" stroke-linecap="round" />
</g>
<g transform="matrix(1 0 0 1 526.15 472.37)"  >
<path style="stroke: none; stroke-width: 1; stroke-dasharray: none; stroke-linecap: butt; stroke-dashoffset: 0; stroke-linejoin: miter; stroke-miterlimit: 4; fill: rgb(242,204,79); fill-rule: evenodd; opacity: 1;" vector-effect="non-scaling-stroke"  transform=" translate(-787.72, -483.05)" d="M 883.114 556.435 L 986.28 436.607 C 988.641 433.86400000000003 991.7529999999999 432.43600000000004 995.372 432.43600000000004 L 1116.0639999999999 432.43600000000004 C 1124.5929999999998 432.43600000000004 1131.571 425.456 1131.571 416.92800000000005 L 1131.571 416.92800000000005 C 1131.571 412.48600000000005 1129.673 408.46400000000006 1126.654 405.63300000000004 C 1126.051 413.79200000000003 1119.183 420.283 1110.879 420.283 L 987.456 420.283 C 983.957 420.283 980.951 421.665 978.666 424.314 L 865.227 556.075 L 865.5369999999999 556.433 C 867.819 559.084 870.828 560.4639999999999 874.3259999999999 560.4639999999999 C 877.825 560.464 880.832 559.084 883.114 556.435 L 883.114 556.435 z M 443.86 420.283 C 445.403 427.21500000000003 451.62100000000004 432.437 458.997 432.437 L 756.8679999999999 432.437 L 749.876 424.315 C 747.5939999999999 421.665 744.5849999999999 420.284 741.087 420.284 L 443.86 420.284 z" stroke-linecap="round" />
</g>
<g transform="matrix(1 0 0 1 525.97 638.89)"  >
<path style="stroke: none; stroke-width: 1; stroke-dasharray: none; stroke-linecap: butt; stroke-dashoffset: 0; stroke-linejoin: miter; stroke-miterlimit: 4; fill: rgb(166,164,15); fill-rule: evenodd; opacity: 1;" vector-effect="non-scaling-stroke"  transform=" translate(-787.53, -649.58)" d="M 1082.901 665.077 C 1091.43 665.077 1098.405 658.102 1098.405 649.576 L 1098.405 649.576 C 1098.405 641.048 1091.43 634.073 1082.901 634.073 C 863.8760000000001 634.073 711.1840000000001 634.073 492.1590000000001 634.073 C 483.6340000000001 634.073 476.6570000000001 641.048 476.6570000000001 649.576 L 476.6570000000001 649.576 C 476.6570000000001 658.102 483.6330000000001 665.077 492.1590000000001 665.077 C 820.439 665.077 815.285 665.077 1082.901 665.077 z" stroke-linecap="round" />
</g>
<g transform="matrix(1 0 0 1 541.38 257.77)"  >
<path style="stroke: none; stroke-width: 1; stroke-dasharray: none; stroke-linecap: butt; stroke-dashoffset: 0; stroke-linejoin: miter; stroke-miterlimit: 4; fill: rgb(247,236,167); fill-rule: evenodd; opacity: 1;" vector-effect="non-scaling-stroke"  transform=" translate(-802.94, -268.45)" d="M 890.908 258.247 L 890.905 258.247 C 887.38 259.22900000000004 883.697 257.148 882.717 253.62300000000002 L 874.501 224.03600000000003 C 873.5219999999999 220.51100000000002 875.605 216.83000000000004 879.13 215.85100000000003 L 879.133 215.85100000000003 C 882.6600000000001 214.872 886.339 216.95200000000003 887.318 220.47700000000003 L 895.534 250.06100000000004 C 896.513 253.59 894.433 257.269 890.908 258.247 L 890.908 258.247 z M 615.872 296.308 L 615.872 296.308 C 617.132 292.876 620.9739999999999 291.096 624.4069999999999 292.353 L 653.2309999999999 302.92900000000003 C 656.6639999999999 304.189 658.4399999999998 308.028 657.1829999999999 311.46200000000005 L 657.1829999999999 311.46200000000005 C 655.9229999999999 314.89500000000004 652.0839999999998 316.67600000000004 648.6479999999999 315.41600000000005 L 619.8259999999999 304.84400000000005 C 616.393 303.581 614.615 299.741 615.872 296.308 L 615.872 296.308 z M 949.093 317.12 L 949.093 317.117 C 947.733 313.72200000000004 949.3929999999999 309.832 952.7909999999999 308.471 L 981.2929999999999 297.051 C 984.6879999999999 295.693 988.5759999999999 297.356 989.9389999999999 300.75399999999996 L 989.9389999999999 300.75699999999995 C 991.2999999999998 304.15199999999993 989.6339999999999 308.03999999999996 986.2389999999998 309.40099999999995 L 957.7369999999999 320.82099999999997 C 954.34 322.18 950.453 320.517 949.093 317.12 L 949.093 317.12 z M 844.354 315.171 L 844.351 315.168 C 842.991 311.773 844.653 307.883 848.049 306.522 L 876.554 295.105 C 879.947 293.744 883.837 295.40700000000004 885.197 298.805 L 885.197 298.807 C 886.5600000000001 302.202 884.895 306.09000000000003 881.499 307.451 L 852.9970000000001 318.87100000000004 C 849.599 320.231 845.714 318.569 844.354 315.171 L 844.354 315.171 z M 714.779 313.148 L 714.776 313.14500000000004 C 713.4159999999999 309.75000000000006 715.078 305.86 718.4739999999999 304.499 L 746.9759999999999 293.079 C 750.3709999999999 291.721 754.2609999999999 293.384 755.6219999999998 296.782 L 755.6219999999998 296.78499999999997 C 756.9849999999999 300.17999999999995 755.3199999999998 304.068 751.9239999999999 305.428 L 723.4219999999999 316.848 C 720.024 318.209 716.139 316.546 714.779 313.148 L 714.779 313.148 z M 672.057 248.683 L 672.059 248.68 C 675.577 247.672 679.2769999999999 249.719 680.286 253.237 L 688.7589999999999 282.749 C 689.7689999999999 286.267 687.7169999999999 289.96500000000003 684.1999999999999 290.975 L 684.1969999999999 290.975 C 680.6809999999999 291.98600000000005 676.9839999999999 289.93600000000004 675.9739999999999 286.418 L 667.501 256.906 C 666.492 253.388 668.539 249.691 672.057 248.683 L 672.057 248.683 z M 940.687 250.075 L 940.69 250.075 C 943.826 251.95899999999997 944.8530000000001 256.062 942.9720000000001 259.198 L 927.171 285.527 C 925.287 288.663 921.1840000000001 289.688 918.047 287.804 L 918.0450000000001 287.804 C 914.9060000000001 285.91999999999996 913.8820000000001 281.81899999999996 915.7650000000001 278.67999999999995 L 931.5660000000001 252.35499999999996 C 933.447 249.216 937.549 248.191 940.687 250.075 L 940.687 250.075 z M 809.007 259.81 L 809.01 259.81 C 812.664 260.01800000000003 815.479 263.174 815.273 266.826 L 813.523 297.481 C 813.315 301.135 810.159 303.95 806.504 303.741 L 806.501 303.741 C 802.8489999999999 303.53299999999996 800.034 300.377 800.2429999999999 296.72499999999997 L 801.9899999999999 266.06999999999994 C 802.199 262.416 805.355 259.603 809.007 259.81 L 809.007 259.81 z M 767.078 234.839 L 767.078 234.839 C 769.566 237.524 769.405 241.75 766.72 244.236 L 744.191 265.09999999999997 C 741.508 267.58599999999996 737.283 267.42299999999994 734.794 264.73799999999994 L 734.794 264.73599999999993 C 732.309 262.05099999999993 732.4689999999999 257.8279999999999 735.155 255.34199999999993 L 757.682 234.47699999999992 C 760.366 231.992 764.592 232.154 767.078 234.839 L 767.078 234.839 z M 854.34 242.08 L 854.34 242.08200000000002 C 853.571 245.66000000000003 850.0210000000001 247.95700000000002 846.4440000000001 247.18900000000002 L 816.422 240.73600000000002 C 812.847 239.96800000000002 810.553 236.41400000000002 811.321 232.83700000000002 L 811.321 232.83400000000003 C 812.091 229.25600000000003 815.643 226.96200000000005 819.2180000000001 227.72900000000004 L 849.2370000000001 234.18200000000004 C 852.815 234.953 855.109 238.501 854.34 242.08 z" stroke-linecap="round" />
</g>
<g transform="matrix(1 0 0 1 397.31 489.29)"  >
<path style="stroke: none; stroke-width: 1; stroke-dasharray: none; stroke-linecap: butt; stroke-dashoffset: 0; stroke-linejoin: miter; stroke-miterlimit: 4; fill: rgb(254,254,254); fill-rule: evenodd; opacity: 1;" vector-effect="non-scaling-stroke"  transform=" translate(-658.88, -499.97)" d="M 608.018 705.203 C 611.9920000000001 705.203 615.217 708.428 615.217 712.4019999999999 C 615.217 716.376 611.9929999999999 719.6009999999999 608.018 719.6009999999999 L 492.958 719.6009999999999 C 488.98400000000004 719.6009999999999 485.759 716.3759999999999 485.759 712.4019999999999 C 485.759 708.4279999999999 488.98400000000004 705.203 492.958 705.203 L 608.018 705.203 L 608.018 705.203 z M 787.527 185.972 C 791.5 185.972 794.725 189.19500000000002 794.725 193.168 C 794.725 197.144 791.5 200.36700000000002 787.527 200.36700000000002 C 783.553 200.36700000000002 780.3280000000001 197.144 780.3280000000001 193.168 C 780.328 189.195 783.553 185.972 787.527 185.972 L 787.527 185.972 z M 753.638 187.642 C 757.5830000000001 187.26999999999998 761.0840000000001 190.166 761.456 194.111 C 761.828 198.05599999999998 758.932 201.557 754.987 201.929 C 747.169 202.685 739.304 203.724 731.4259999999999 205.031 C 723.68 206.318 715.833 207.90200000000002 707.929 209.761 C 704.063 210.661 700.1949999999999 208.256 699.295 204.391 C 698.395 200.52499999999998 700.799 196.65699999999998 704.665 195.757 C 712.65 193.87800000000001 720.817 192.239 729.121 190.859 C 737.215 189.516 745.4 188.439 753.638 187.642 L 753.638 187.642 z M 656.685 210.493 C 660.3939999999999 209.082 664.553 210.947 665.9639999999999 214.656 C 667.3749999999999 218.366 665.511 222.524 661.8009999999999 223.935 C 629.525 236.235 598.954 253.121 571.718 274.043 C 549.164 291.368 528.881 311.481 511.79799999999994 334.069 L 601.423 334.069 C 605.397 334.069 608.622 337.293 608.622 341.267 C 608.622 345.241 605.3969999999999 348.466 601.423 348.466 L 497.764 348.466 C 496.365 348.454 494.954 348.04900000000004 493.713 347.202 C 490.43800000000005 344.965 489.593 340.492 491.829 337.217 C 511.33 308.736 535.564 283.703 563 262.626 C 591.365 240.836 623.16 223.269 656.685 210.493 L 656.685 210.493 z M 781.022 431.949 C 778.4300000000001 428.937 778.769 424.39 781.7800000000001 421.798 C 784.791 419.207 789.3380000000001 419.545 791.9290000000001 422.556 L 858.6090000000002 500.012 C 861.2010000000001 503.024 860.8620000000002 507.571 857.8510000000001 510.163 C 854.8390000000002 512.754 850.2920000000001 512.416 847.7000000000002 509.40500000000003 L 781.022 431.949 L 781.022 431.949 z M 868.26 514.793 C 872.236 514.793 875.459 518.016 875.459 521.989 C 875.459 525.965 872.236 529.188 868.26 529.188 C 864.286 529.188 861.061 525.965 861.061 521.989 C 861.061 518.015 864.287 514.793 868.26 514.793 L 868.26 514.793 z M 449.494 535.162 C 453.47 535.162 456.69300000000004 538.385 456.69300000000004 542.3580000000001 C 456.69300000000004 546.3340000000001 453.47 549.557 449.494 549.557 C 445.52000000000004 549.557 442.295 546.3340000000001 442.295 542.3580000000001 C 442.295 538.385 445.521 535.162 449.494 535.162 L 449.494 535.162 z M 712.72 535.161 C 716.6940000000001 535.161 719.918 538.385 719.918 542.3589999999999 C 719.918 546.333 716.694 549.5579999999999 712.72 549.5579999999999 L 478.822 549.5579999999999 C 474.848 549.5579999999999 471.623 546.3339999999998 471.623 542.3589999999999 C 471.623 538.3849999999999 474.848 535.161 478.822 535.161 L 712.72 535.161 L 712.72 535.161 z M 471.186 705.2 C 475.15999999999997 705.2 478.383 708.428 478.383 712.4010000000001 C 478.383 716.3750000000001 475.15999999999997 719.6020000000001 471.186 719.6020000000001 C 467.20799999999997 719.6020000000001 463.98499999999996 716.3740000000001 463.98499999999996 712.4010000000001 C 463.986 708.428 467.208 705.2 471.186 705.2 L 471.186 705.2 z M 465.32 739.541 C 464.746 735.6120000000001 467.465 731.9580000000001 471.393 731.3850000000001 C 475.32199999999995 730.8110000000001 478.976 733.5300000000001 479.549 737.4580000000001 C 481.418 749.95 485.474 761.7350000000001 491.30199999999996 772.3940000000001 C 497.27899999999994 783.3310000000001 505.167 793.1410000000001 514.509 801.3740000000001 C 517.49 803.9960000000001 517.78 808.5440000000001 515.157 811.5240000000001 C 512.534 814.5050000000001 507.98800000000006 814.7950000000001 505.00700000000006 812.1720000000001 C 494.4680000000001 802.8830000000002 485.52900000000005 791.7420000000002 478.70500000000004 779.2570000000002 C 472.057 767.1 467.441 753.706 465.32 739.541 z" stroke-linecap="round" />
</g>
<g transform="matrix(1 0 0 1 525.97 506)"  >
<path style="stroke: none; stroke-width: 1; stroke-dasharray: none; stroke-linecap: butt; stroke-dashoffset: 0; stroke-linejoin: miter; stroke-miterlimit: 4; fill: rgb(43,42,41); fill-rule: evenodd; opacity: 1;" vector-effect="non-scaling-stroke"  transform=" translate(-787.53, -516.68)" d="M 883.118 556.431 L 986.397 436.46400000000006 C 988.678 433.81200000000007 991.6880000000001 432.4320000000001 995.186 432.4320000000001 L 1116.065 432.4320000000001 C 1124.593 432.4320000000001 1131.569 425.45700000000005 1131.569 416.9310000000001 C 1131.569 408.4020000000001 1124.5929999999998 401.4270000000001 1116.065 401.4270000000001 L 458.995 401.4270000000001 C 450.469 401.4270000000001 443.494 408.4020000000001 443.494 416.9310000000001 C 443.494 425.4560000000001 450.46900000000005 432.4320000000001 458.995 432.4320000000001 L 753.472 432.4320000000001 C 756.973 432.4320000000001 759.978 433.81200000000007 762.262 436.46400000000006 L 865.539 556.431 C 867.8199999999999 559.082 870.83 560.462 874.328 560.462 C 877.825 560.462 880.834 559.082 883.118 556.431 L 883.118 556.431 z M 584.615 868.034 L 990.4449999999999 868.034 C 1068.249 868.034 1131.7079999999999 804.574 1131.7079999999999 726.771 L 1131.7079999999999 703.771 C 1131.7079999999999 695.9889999999999 1125.3619999999999 689.644 1117.5819999999999 689.644 L 457.475 689.644 C 449.69800000000004 689.644 443.34900000000005 695.991 443.34900000000005 703.771 L 443.34900000000005 726.771 C 443.349 804.572 506.809 868.034 584.615 868.034 L 584.615 868.034 z M 990.445 892.03 L 584.615 892.03 C 539.09 892.03 497.769 873.472 467.839 843.544 C 437.911 813.614 419.353 772.2959999999999 419.353 726.77 L 419.353 703.77 C 419.353 694.404 422.818 685.768 428.544 679.074 C 429.151 678.294 429.813 677.543 430.531 676.8249999999999 C 437.127 670.2289999999999 446.133 666.0319999999999 456.099 665.675 C 453.89099999999996 660.756 452.663 655.304 452.663 649.5759999999999 C 452.663 643.7449999999999 453.937 638.2049999999999 456.217 633.2159999999999 L 442.56899999999996 633.2159999999999 C 430.33799999999997 633.2159999999999 419.16299999999995 628.1959999999999 410.99199999999996 620.0969999999999 L 410.84099999999995 619.9479999999999 C 402.70599999999996 611.7719999999998 397.667 600.5739999999998 397.667 588.3139999999999 L 397.667 532.4219999999998 C 397.667 520.0539999999997 402.71799999999996 508.8199999999998 410.84099999999995 500.6969999999998 L 410.88899999999995 500.7449999999998 L 410.93399999999997 500.6969999999998 C 419.06399999999996 492.57499999999976 430.265 487.5229999999998 442.56899999999996 487.5229999999998 L 456.01099999999997 487.5229999999998 C 453.861 482.6559999999998 452.664 477.2769999999998 452.664 471.6279999999998 C 452.664 466.2079999999998 453.78499999999997 461.0249999999998 455.81 456.2969999999998 C 447.25600000000003 455.5959999999998 439.423 452.1089999999998 433.227 446.7439999999998 C 432.484 446.1609999999998 431.768 445.5249999999998 431.084 444.8409999999998 C 423.938 437.69499999999977 419.499 427.8139999999998 419.499 416.9289999999998 C 419.499 406.0419999999998 423.93800000000005 396.1599999999998 431.084 389.0139999999998 L 431.132 389.0619999999998 C 432.70300000000003 387.49299999999977 434.402 386.05299999999977 436.214 384.7619999999998 C 435.466 383.7059999999998 434.767 382.6079999999998 434.112 381.4609999999998 C 430.73100000000005 375.53399999999976 429.06100000000004 369.0429999999998 429.107 362.4509999999998 C 429.153 355.7939999999998 430.92100000000005 349.2769999999998 434.396 343.3789999999998 C 470.697 281.7979999999998 522.535 230.5699999999998 584.454 195.1609999999998 C 644.348 160.91399999999982 713.6719999999999 141.33599999999979 787.53 141.33599999999979 C 861.386 141.33599999999979 930.712 160.9139999999998 990.606 195.16099999999977 C 1052.525 230.5689999999998 1104.363 281.7979999999998 1140.664 343.3789999999998 C 1144.139 349.2779999999998 1145.907 355.7869999999998 1145.953 362.4509999999998 C 1145.999 369.0419999999998 1144.329 375.5329999999998 1140.9479999999999 381.4609999999998 L 1140.907 381.5299999999998 L 1140.9479999999999 381.5539999999998 C 1140.319 382.6539999999998 1139.6429999999998 383.7139999999998 1138.9219999999998 384.7309999999998 C 1140.7289999999998 386.0149999999998 1142.4209999999998 387.4529999999998 1143.9829999999997 389.01399999999984 C 1151.1289999999997 396.15999999999985 1155.5679999999998 406.04199999999986 1155.5679999999998 416.92899999999986 C 1155.5679999999998 426.71599999999984 1151.9109999999998 435.7409999999999 1145.8859999999997 442.69799999999987 C 1145.3029999999997 443.4419999999999 1144.6669999999997 444.15699999999987 1143.9839999999997 444.84099999999984 C 1137.5429999999997 451.28099999999984 1128.8799999999997 455.52399999999983 1119.2599999999998 456.29999999999984 C 1121.2829999999997 461.0269999999998 1122.4039999999998 466.20999999999987 1122.4039999999998 471.6279999999998 C 1122.4039999999998 477.2629999999998 1121.1919999999998 482.6419999999998 1119.0149999999999 487.5229999999998 L 1132.4959999999999 487.5229999999998 C 1143.8439999999998 487.5229999999998 1154.291 491.8449999999998 1162.2679999999998 498.9429999999998 C 1162.9439999999997 499.4859999999998 1163.5969999999998 500.0709999999998 1164.2229999999997 500.69699999999983 C 1172.3449999999998 508.8199999999998 1177.3969999999997 520.0499999999998 1177.3969999999997 532.4219999999998 L 1177.3969999999997 588.3139999999999 C 1177.3969999999997 600.6859999999998 1172.3509999999997 611.9179999999999 1164.2259999999997 620.0429999999999 C 1156.0999999999997 628.1679999999999 1144.8689999999997 633.2149999999999 1132.4959999999996 633.2149999999999 L 1118.8489999999997 633.2149999999999 C 1121.1289999999997 638.204 1122.4039999999998 643.7439999999999 1122.4039999999998 649.5749999999999 C 1122.4039999999998 655.286 1121.1579999999997 660.7379999999999 1118.9239999999998 665.6719999999999 C 1128.7649999999996 666.0199999999999 1137.7229999999997 670.1909999999999 1144.3599999999997 676.7509999999999 L 1144.5299999999997 676.9189999999999 C 1151.4329999999998 683.8639999999999 1155.7069999999997 693.3659999999999 1155.7069999999997 703.7709999999998 L 1155.7069999999997 726.7709999999998 C 1155.7069999999997 772.2959999999998 1137.1499999999996 813.6139999999998 1107.2209999999995 843.5449999999998 C 1077.294 873.469 1035.97 892.03 990.445 892.03 L 990.445 892.03 z M 1082.901 665.077 C 1091.43 665.077 1098.405 658.102 1098.405 649.576 C 1098.405 641.048 1091.43 634.073 1082.901 634.073 L 492.159 634.073 C 483.634 634.073 476.657 641.048 476.657 649.576 C 476.657 658.102 483.633 665.077 492.159 665.077 L 1082.901 665.077 L 1082.901 665.077 z M 442.567 609.219 C 431.07 609.219 421.661 599.8080000000001 421.661 588.3140000000001 L 421.661 532.422 C 421.661 520.933 431.074 511.52000000000004 442.567 511.52000000000004 L 795.217 511.52000000000004 L 847.355 572.0830000000001 C 848.029 572.8650000000001 848.744 573.5970000000001 849.491 574.2700000000001 C 852.439 577.1610000000001 855.814 579.4770000000001 859.54 581.1880000000001 C 864.26 583.3500000000001 869.223 584.4580000000001 874.329 584.4580000000001 C 879.4399999999999 584.4580000000001 884.3979999999999 583.3500000000001 889.1149999999999 581.1880000000001 C 893.7679999999999 579.0550000000001 897.8319999999999 576.0000000000001 901.209 572.0840000000001 L 901.247 572.038 L 901.3019999999999 572.0840000000001 L 953.4399999999999 511.5210000000001 L 1132.493 511.5210000000001 C 1143.982 511.5210000000001 1153.399 520.927 1153.399 532.4230000000001 L 1153.399 588.3150000000002 C 1153.399 599.8160000000001 1143.9899999999998 609.2200000000001 1132.493 609.2200000000001 L 442.567 609.2200000000001 L 442.567 609.219 z M 974.438 487.13 L 1000.869 456.427 L 1085.93 456.427 C 1093.02 457.845 1098.405 464.14000000000004 1098.405 471.62800000000004 C 1098.405 480.15400000000005 1091.43 487.13000000000005 1082.901 487.13000000000005 L 974.438 487.13000000000005 L 974.438 487.13 z M 489.131 456.427 L 747.79 456.427 L 774.221 487.13 L 492.159 487.13 C 483.634 487.13 476.657 480.155 476.657 471.628 C 476.657 464.14 482.042 457.845 489.131 456.427 L 489.131 456.427 z M 787.527 165.333 C 645.884 165.333 522.086 241.688 455.016 355.472 C 452.37100000000004 359.959 452.338 365.12699999999995 454.91900000000004 369.65099999999995 C 457.50600000000003 374.179 461.97600000000006 376.775 467.189 376.775 L 1107.867 376.775 C 1113.076 376.775 1117.549 374.179 1120.136 369.65099999999995 C 1122.718 365.12699999999995 1122.687 359.95899999999995 1120.04 355.472 C 1052.969 241.689 929.172 165.333 787.527 165.333 z" stroke-linecap="round" />
</g>
</svg>